<?xml version="1.0" encoding="UTF-8"?>
<svg width="300" height="300" viewBox="0 0 300 300" fill="none" xmlns="http://www.w3.org/2000/svg">
  <!-- Background -->
  <rect width="300" height="300" rx="15" fill="#F1F5F9"/>
  
  <!-- Website Mockup -->
  <rect x="50" y="50" width="200" height="150" rx="8" fill="white" stroke="#475569" stroke-width="2"/>
  
  <!-- Header -->
  <rect x="50" y="50" width="200" height="30" rx="8 8 0 0" fill="#0EA5E9"/>
  <rect x="65" y="62" width="50" height="6" rx="3" fill="white"/>
  <rect x="170" y="62" width="20" height="6" rx="3" fill="white"/>
  <rect x="200" y="62" width="20" height="6" rx="3" fill="white"/>
  <rect x="230" y="62" width="5" height="6" rx="2.5" fill="white"/>
  
  <!-- Hero Section -->
  <rect x="65" y="90" width="170" height="40" rx="4" fill="#E0F2FE"/>
  <rect x="80" y="100" width="100" height="8" rx="4" fill="#0EA5E9"/>
  <rect x="80" y="115" width="70" height="5" rx="2.5" fill="#0EA5E9" opacity="0.7"/>
  
  <!-- Content Sections -->
  <rect x="65" y="140" width="75" height="50" rx="4" fill="#F8FAFC"/>
  <rect x="75" y="150" width="55" height="5" rx="2.5" fill="#94A3B8"/>
  <rect x="75" y="160" width="45" height="5" rx="2.5" fill="#94A3B8"/>
  <rect x="75" y="170" width="35" height="5" rx="2.5" fill="#94A3B8"/>
  
  <rect x="150" y="140" width="75" height="50" rx="4" fill="#F8FAFC"/>
  <rect x="160" y="150" width="55" height="5" rx="2.5" fill="#94A3B8"/>
  <rect x="160" y="160" width="45" height="5" rx="2.5" fill="#94A3B8"/>
  <rect x="160" y="170" width="35" height="5" rx="2.5" fill="#94A3B8"/>
  
  <!-- Analytics Chart -->
  <rect x="75" y="210" width="150" height="60" rx="4" fill="white" stroke="#475569" stroke-width="1"/>
  
  <!-- Chart Lines -->
  <path d="M85 250 L215 250" stroke="#CBD5E1" stroke-width="1"/>
  <path d="M85 230 L215 230" stroke="#CBD5E1" stroke-width="1"/>
  <path d="M85 210 L215 210" stroke="#CBD5E1" stroke-width="1"/>
  
  <!-- Chart Data -->
  <path d="M95 245 L115 235 L135 240 L155 220 L175 215 L195 225 L215 210" 
        stroke="#0EA5E9" stroke-width="2" stroke-linecap="round" stroke-linejoin="round"/>
  
  <!-- Data Points -->
  <circle cx="95" cy="245" r="3" fill="#0EA5E9"/>
  <circle cx="115" cy="235" r="3" fill="#0EA5E9"/>
  <circle cx="135" cy="240" r="3" fill="#0EA5E9"/>
  <circle cx="155" cy="220" r="3" fill="#0EA5E9"/>
  <circle cx="175" cy="215" r="3" fill="#0EA5E9"/>
  <circle cx="195" cy="225" r="3" fill="#0EA5E9"/>
  <circle cx="215" cy="210" r="3" fill="#0EA5E9"/>
  
  <!-- Growth Indicator -->
  <path d="M230 210 L250 190" stroke="#10B981" stroke-width="2" stroke-linecap="round"/>
  <path d="M250 190 L240 190" stroke="#10B981" stroke-width="2" stroke-linecap="round"/>
  <path d="M250 190 L250 200" stroke="#10B981" stroke-width="2" stroke-linecap="round"/>
  <text x="230" y="180" font-family="Arial, sans-serif" font-size="12" font-weight="bold" fill="#10B981">+40%</text>
</svg>
