<?xml version="1.0" encoding="UTF-8"?>
<svg width="600" height="400" viewBox="0 0 600 400" fill="none" xmlns="http://www.w3.org/2000/svg">
  <!-- Background -->
  <rect width="600" height="400" rx="20" fill="#FDF2F8"/>
  
  <!-- Gears -->
  <circle cx="200" cy="200" r="80" fill="#FBCFE8" stroke="#DB2777" stroke-width="4"/>
  <circle cx="200" cy="200" r="20" fill="white" stroke="#DB2777" stroke-width="3"/>
  
  <!-- Gear Teeth -->
  <rect x="195" y="110" width="10" height="30" fill="#DB2777"/>
  <rect x="195" y="260" width="10" height="30" fill="#DB2777"/>
  <rect x="110" y="195" width="30" height="10" fill="#DB2777"/>
  <rect x="260" y="195" width="30" height="10" fill="#DB2777"/>
  
  <!-- Rotated Gear Teeth -->
  <rect x="136" y="136" width="10" height="30" transform="rotate(-45 136 136)" fill="#DB2777"/>
  <rect x="254" y="254" width="10" height="30" transform="rotate(-45 254 254)" fill="#DB2777"/>
  <rect x="136" y="254" width="10" height="30" transform="rotate(45 136 254)" fill="#DB2777"/>
  <rect x="254" y="136" width="10" height="30" transform="rotate(45 254 136)" fill="#DB2777"/>
  
  <!-- Dashboard -->
  <rect x="320" y="120" width="200" height="160" rx="10" fill="white" stroke="#DB2777" stroke-width="3"/>
  
  <!-- Chart Elements -->
  <rect x="340" y="150" width="160" height="100" rx="5" fill="#FBCFE8" stroke="#DB2777" stroke-width="1"/>
  
  <!-- Chart Bars -->
  <rect x="360" y="210" width="20" height="30" fill="#DB2777"/>
  <rect x="390" y="190" width="20" height="50" fill="#DB2777"/>
  <rect x="420" y="170" width="20" height="70" fill="#DB2777"/>
  <rect x="450" y="160" width="20" height="80" fill="#DB2777"/>
  
  <!-- Dashboard Header -->
  <rect x="340" y="130" width="100" height="10" rx="5" fill="#F9A8D4"/>
  
  <!-- Dashboard Controls -->
  <circle cx="490" cy="135" r="5" fill="#DB2777"/>
  <circle cx="510" cy="135" r="5" fill="#DB2777"/>
  
  <!-- AI/Data Elements -->
  <path d="M420 70 L440 90 L400 90 Z" fill="#DB2777"/>
  <path d="M420 70 L420 90" stroke="#DB2777" stroke-width="2"/>
  <path d="M420 90 L420 120" stroke="#DB2777" stroke-width="2" stroke-dasharray="5 3"/>
  
  <path d="M320 300 L340 320 L300 320 Z" fill="#DB2777"/>
  <path d="M320 300 L320 320" stroke="#DB2777" stroke-width="2"/>
  <path d="M320 280 L320 300" stroke="#DB2777" stroke-width="2" stroke-dasharray="5 3"/>
  
  <path d="M520 300 L540 320 L500 320 Z" fill="#DB2777"/>
  <path d="M520 300 L520 320" stroke="#DB2777" stroke-width="2"/>
  <path d="M520 280 L520 300" stroke="#DB2777" stroke-width="2" stroke-dasharray="5 3"/>
  
  <!-- Connection Lines -->
  <path d="M280 200 L320 200" stroke="#DB2777" stroke-width="3" stroke-linecap="round"/>
  
  <!-- Text Label -->
  <text x="300" y="350" font-family="Arial, sans-serif" font-size="24" font-weight="bold" text-anchor="middle" fill="#DB2777">Optimization Phase</text>
</svg>
