<svg width="800" height="600" viewBox="0 0 800 600" fill="none" xmlns="http://www.w3.org/2000/svg">
  <defs>
    <linearGradient id="meshGrad1" x1="0%" y1="0%" x2="100%" y2="100%">
      <stop offset="0%" style="stop-color:#3B82F6;stop-opacity:0.1" />
      <stop offset="50%" style="stop-color:#8B5CF6;stop-opacity:0.05" />
      <stop offset="100%" style="stop-color:#EC4899;stop-opacity:0.02" />
    </linearGradient>
    <linearGradient id="meshGrad2" x1="100%" y1="0%" x2="0%" y2="100%">
      <stop offset="0%" style="stop-color:#06B6D4;stop-opacity:0.15" />
      <stop offset="100%" style="stop-color:#3B82F6;stop-opacity:0.05" />
    </linearGradient>
    <filter id="meshBlur">
      <feGaussianBlur in="SourceGraphic" stdDeviation="3"/>
    </filter>
  </defs>
  
  <!-- Base gradient -->
  <rect width="800" height="600" fill="url(#meshGrad1)"/>
  
  <!-- Mesh pattern -->
  <g opacity="0.4">
    <path d="M0,300 Q200,100 400,300 T800,300" stroke="#3B82F6" stroke-width="0.5" fill="none" opacity="0.3"/>
    <path d="M0,200 Q200,400 400,200 T800,200" stroke="#6366F1" stroke-width="0.5" fill="none" opacity="0.3"/>
    <path d="M0,400 Q200,200 400,400 T800,400" stroke="#8B5CF6" stroke-width="0.5" fill="none" opacity="0.3"/>
    <path d="M200,0 Q100,300 200,600" stroke="#3B82F6" stroke-width="0.5" fill="none" opacity="0.3"/>
    <path d="M400,0 Q500,300 400,600" stroke="#6366F1" stroke-width="0.5" fill="none" opacity="0.3"/>
    <path d="M600,0 Q500,300 600,600" stroke="#8B5CF6" stroke-width="0.5" fill="none" opacity="0.3"/>
  </g>
  
  <!-- Floating orbs -->
  <g filter="url(#meshBlur)">
    <circle cx="200" cy="150" r="80" fill="url(#meshGrad2)" opacity="0.3"/>
    <circle cx="600" cy="450" r="100" fill="#3B82F6" opacity="0.1"/>
    <circle cx="400" cy="300" r="120" fill="#8B5CF6" opacity="0.08"/>
  </g>
  
  <!-- Accent dots -->
  <g opacity="0.6">
    <circle cx="150" cy="250" r="2" fill="#3B82F6"/>
    <circle cx="350" cy="150" r="2" fill="#6366F1"/>
    <circle cx="550" cy="350" r="2" fill="#8B5CF6"/>
    <circle cx="650" cy="250" r="2" fill="#EC4899"/>
    <circle cx="250" cy="450" r="2" fill="#06B6D4"/>
  </g>
</svg>
