<svg width="600" height="400" viewBox="0 0 600 400" fill="none" xmlns="http://www.w3.org/2000/svg">
  <defs>
    <linearGradient id="dataFlowGrad" x1="0%" y1="0%" x2="100%" y2="100%">
      <stop offset="0%" style="stop-color:#06B6D4;stop-opacity:0.3" />
      <stop offset="50%" style="stop-color:#3B82F6;stop-opacity:0.2" />
      <stop offset="100%" style="stop-color:#8B5CF6;stop-opacity:0.1" />
    </linearGradient>
    <filter id="blur">
      <feGaussianBlur in="SourceGraphic" stdDeviation="2"/>
    </filter>
  </defs>
  
  <!-- Background -->
  <rect width="600" height="400" fill="url(#dataFlowGrad)"/>
  
  <!-- Data flow paths -->
  <g stroke="#3B82F6" stroke-width="2" fill="none" opacity="0.3">
    <path d="M 50 200 Q 150 100, 250 150 T 450 200">
      <animate attributeName="stroke-dasharray" values="0 1000;1000 0" dur="4s" repeatCount="indefinite"/>
    </path>
    <path d="M 50 250 Q 200 350, 350 250 T 550 150">
      <animate attributeName="stroke-dasharray" values="0 1000;1000 0" dur="5s" repeatCount="indefinite"/>
    </path>
    <path d="M 100 50 Q 250 150, 400 100 T 550 200">
      <animate attributeName="stroke-dasharray" values="0 1000;1000 0" dur="6s" repeatCount="indefinite"/>
    </path>
  </g>
  
  <!-- Data nodes -->
  <g opacity="0.8">
    <!-- Source nodes -->
    <rect x="40" y="180" width="40" height="40" rx="4" fill="#06B6D4" opacity="0.6"/>
    <rect x="40" y="230" width="40" height="40" rx="4" fill="#06B6D4" opacity="0.6"/>
    <rect x="90" y="40" width="40" height="40" rx="4" fill="#06B6D4" opacity="0.6"/>
    
    <!-- Processing nodes -->
    <circle cx="250" cy="150" r="25" fill="#3B82F6" opacity="0.6"/>
    <circle cx="350" cy="250" r="25" fill="#6366F1" opacity="0.6"/>
    <circle cx="400" cy="100" r="25" fill="#8B5CF6" opacity="0.6"/>
    
    <!-- Output nodes -->
    <polygon points="520,180 560,180 580,200 560,220 520,220" fill="#EC4899" opacity="0.6"/>
    <polygon points="520,130 560,130 580,150 560,170 520,170" fill="#EC4899" opacity="0.6"/>
  </g>
  
  <!-- Floating particles -->
  <g opacity="0.4">
    <circle cx="150" cy="100" r="3" fill="#3B82F6">
      <animate attributeName="cy" values="100;120;100" dur="3s" repeatCount="indefinite"/>
      <animate attributeName="opacity" values="0.4;0.8;0.4" dur="3s" repeatCount="indefinite"/>
    </circle>
    <circle cx="300" cy="200" r="3" fill="#6366F1">
      <animate attributeName="cy" values="200;180;200" dur="4s" repeatCount="indefinite"/>
      <animate attributeName="opacity" values="0.4;0.8;0.4" dur="4s" repeatCount="indefinite"/>
    </circle>
    <circle cx="450" cy="150" r="3" fill="#8B5CF6">
      <animate attributeName="cy" values="150;170;150" dur="3.5s" repeatCount="indefinite"/>
      <animate attributeName="opacity" values="0.4;0.8;0.4" dur="3.5s" repeatCount="indefinite"/>
    </circle>
  </g>
  
  <!-- Grid overlay -->
  <g opacity="0.05">
    <pattern id="grid" width="40" height="40" patternUnits="userSpaceOnUse">
      <path d="M 40 0 L 0 0 0 40" fill="none" stroke="#3B82F6" stroke-width="1"/>
    </pattern>
    <rect width="600" height="400" fill="url(#grid)"/>
  </g>
</svg>
