<svg width="600" height="400" viewBox="0 0 600 400" fill="none" xmlns="http://www.w3.org/2000/svg">
  <defs>
    <linearGradient id="neuralGrad1" x1="0%" y1="0%" x2="100%" y2="100%">
      <stop offset="0%" style="stop-color:#3B82F6;stop-opacity:0.2" />
      <stop offset="100%" style="stop-color:#8B5CF6;stop-opacity:0.1" />
    </linearGradient>
    <linearGradient id="neuralGrad2" x1="0%" y1="0%" x2="100%" y2="100%">
      <stop offset="0%" style="stop-color:#3B82F6;stop-opacity:0.4" />
      <stop offset="100%" style="stop-color:#8B5CF6;stop-opacity:0.2" />
    </linearGradient>
    <filter id="glow">
      <feGaussianBlur stdDeviation="4" result="coloredBlur"/>
      <feMerge>
        <feMergeNode in="coloredBlur"/>
        <feMergeNode in="SourceGraphic"/>
      </feMerge>
    </filter>
  </defs>
  
  <!-- Background mesh -->
  <rect width="600" height="400" fill="url(#neuralGrad1)"/>
  
  <!-- Neural network connections -->
  <g opacity="0.3">
    <line x1="100" y1="100" x2="200" y2="150" stroke="#3B82F6" stroke-width="1" opacity="0.4"/>
    <line x1="100" y1="100" x2="200" y2="250" stroke="#3B82F6" stroke-width="1" opacity="0.4"/>
    <line x1="100" y1="200" x2="200" y2="150" stroke="#3B82F6" stroke-width="1" opacity="0.4"/>
    <line x1="100" y1="200" x2="200" y2="250" stroke="#3B82F6" stroke-width="1" opacity="0.4"/>
    <line x1="100" y1="300" x2="200" y2="150" stroke="#3B82F6" stroke-width="1" opacity="0.4"/>
    <line x1="100" y1="300" x2="200" y2="250" stroke="#3B82F6" stroke-width="1" opacity="0.4"/>
    
    <line x1="200" y1="150" x2="300" y2="100" stroke="#6366F1" stroke-width="1" opacity="0.4"/>
    <line x1="200" y1="150" x2="300" y2="200" stroke="#6366F1" stroke-width="1" opacity="0.4"/>
    <line x1="200" y1="150" x2="300" y2="300" stroke="#6366F1" stroke-width="1" opacity="0.4"/>
    <line x1="200" y1="250" x2="300" y2="100" stroke="#6366F1" stroke-width="1" opacity="0.4"/>
    <line x1="200" y1="250" x2="300" y2="200" stroke="#6366F1" stroke-width="1" opacity="0.4"/>
    <line x1="200" y1="250" x2="300" y2="300" stroke="#6366F1" stroke-width="1" opacity="0.4"/>
    
    <line x1="300" y1="100" x2="400" y2="150" stroke="#8B5CF6" stroke-width="1" opacity="0.4"/>
    <line x1="300" y1="100" x2="400" y2="250" stroke="#8B5CF6" stroke-width="1" opacity="0.4"/>
    <line x1="300" y1="200" x2="400" y2="150" stroke="#8B5CF6" stroke-width="1" opacity="0.4"/>
    <line x1="300" y1="200" x2="400" y2="250" stroke="#8B5CF6" stroke-width="1" opacity="0.4"/>
    <line x1="300" y1="300" x2="400" y2="150" stroke="#8B5CF6" stroke-width="1" opacity="0.4"/>
    <line x1="300" y1="300" x2="400" y2="250" stroke="#8B5CF6" stroke-width="1" opacity="0.4"/>
    
    <line x1="400" y1="150" x2="500" y2="200" stroke="#A855F7" stroke-width="1" opacity="0.4"/>
    <line x1="400" y1="250" x2="500" y2="200" stroke="#A855F7" stroke-width="1" opacity="0.4"/>
  </g>
  
  <!-- Neural nodes -->
  <g filter="url(#glow)">
    <!-- Input layer -->
    <circle cx="100" cy="100" r="8" fill="#3B82F6" opacity="0.8"/>
    <circle cx="100" cy="200" r="8" fill="#3B82F6" opacity="0.8"/>
    <circle cx="100" cy="300" r="8" fill="#3B82F6" opacity="0.8"/>
    
    <!-- Hidden layer 1 -->
    <circle cx="200" cy="150" r="10" fill="#6366F1" opacity="0.8"/>
    <circle cx="200" cy="250" r="10" fill="#6366F1" opacity="0.8"/>
    
    <!-- Hidden layer 2 -->
    <circle cx="300" cy="100" r="10" fill="#8B5CF6" opacity="0.8"/>
    <circle cx="300" cy="200" r="10" fill="#8B5CF6" opacity="0.8"/>
    <circle cx="300" cy="300" r="10" fill="#8B5CF6" opacity="0.8"/>
    
    <!-- Hidden layer 3 -->
    <circle cx="400" cy="150" r="10" fill="#A855F7" opacity="0.8"/>
    <circle cx="400" cy="250" r="10" fill="#A855F7" opacity="0.8"/>
    
    <!-- Output layer -->
    <circle cx="500" cy="200" r="12" fill="#EC4899" opacity="0.8"/>
  </g>
  
  <!-- Animated pulse -->
  <circle cx="500" cy="200" r="12" fill="none" stroke="#EC4899" stroke-width="2" opacity="0">
    <animate attributeName="r" values="12;30;12" dur="3s" repeatCount="indefinite"/>
    <animate attributeName="opacity" values="0.8;0;0.8" dur="3s" repeatCount="indefinite"/>
  </circle>
</svg>
